<?xml version="1.0" standalone="no"?>
<!DOCTYPE svg PUBLIC "-//W3C//DTD SVG 1.1//EN" "http://www.w3.org/Graphics/SVG/1.1/DTD/svg11.dtd" >
<svg xmlns="http://www.w3.org/2000/svg">
<metadata>
Created by FontPrep 20130207 at Mon Jun  2 20:41:03 2014
 By Chris W. Burke
Copyright Copr. 1999, Luc[as] de Groot &#60;www.FontFabrik.com&#62;. All rights reserved. Published by FontShop International &#60;www.fontfont.de&#62;
</metadata>
<defs>
<font id="ff60b5a53fff0869d9017a2508061445" horiz-adv-x='1024' >
  <font-face 
    font-family="TheSans-B7Bold"
    font-weight="700"
    font-stretch="normal"
    units-per-em="2048"
    panose-1="2 0 8 3 0 0 0 0 0 0"
    ascent="1638"
    descent="-410"
    x-height="1018"
    cap-height="1382"
    bbox="-135 -514 2109.57 1769"
    underline-thickness="208"
    underline-position="-399"
    unicode-range="U+0020-FFFD"
  />
<missing-glyph 
 />
    <glyph glyph-name=".notdef" unicode="&#xfffd;" 
 />
    <glyph glyph-name=".null" horiz-adv-x="0" 
 />
    <glyph glyph-name="nonmarkingreturn" horiz-adv-x="681" 
 />
    <glyph glyph-name="space" unicode=" " horiz-adv-x="446" 
 />
    <glyph glyph-name="exclam" unicode="!" horiz-adv-x="657" 
d="M506 133q0 -67 -46 -111t-115 -44t-115 44q-46 46 -46 112t46 110q46 45 115 45t115 -45t46 -111zM500 1450l-39 -1065h-225l-43 1065h307z" />
    <glyph glyph-name="quotedbl" unicode="&#x22;" horiz-adv-x="829" 
d="M352 1438l-33 -520h-196l-33 520h262zM739 1438l-34 -520h-195l-33 520h262z" />
    <glyph glyph-name="numbersign" unicode="#" 
d="M707 811h-258l-29 -281h260zM1071 811h-174l-27 -281h154v-180h-172l-39 -350h-190l39 350h-261l-36 -350h-191l37 350h-156v180h174l29 281h-156v178h174l37 342h191l-37 -342h260l35 342h190l-34 -342h153v-178z" />
    <glyph glyph-name="dollar" unicode="$" 
d="M969 415q0 -127 -91 -231t-247 -141v-217h-189v205q-131 2 -247 24l20 236q119 -43 239 -43q238 0 238 153q0 59 -56 99t-136 68t-160 65t-136 115t-56 202t88 222q88 99 233 128v195h186v-182q127 -4 213 -25l-22 -221q-113 35 -221 35q-109 0 -159 -39t-50 -96t57 -97
t138 -68q81 -30 162 -68t139 -116t57 -203z" />
    <glyph glyph-name="percent" unicode="%" horiz-adv-x="1556" 
d="M506 1033q0 157 -115 157q-49 0 -81 -43t-31 -117q0 -164 114 -164q49 0 81 43t32 124zM1280 310q0 155 -113 155q-51 0 -83 -42t-31 -116q0 -166 116 -166q47 0 79 44t32 125zM78 1018q0 148 92 242t232 94t220 -79t80 -232t-91 -247t-234 -96q-143 0 -221 85t-78 233z
M1370 1255l-1026 -1300l-164 117l1026 1300zM1479 318q-1 -152 -93 -246t-234 -94t-220 83q-78 85 -78 233t91 242t231 95q140 0 222 -80q81 -80 81 -233z" />
    <glyph glyph-name="ampersand" unicode="&#x26;" horiz-adv-x="1632" 
d="M369 416q0 -88 64 -152q65 -63 173 -63q162 0 295 100q-223 180 -391 352q-141 -121 -141 -237zM696 1192q0 53 -31 88q-33 35 -93 35t-96 -35t-36 -92q0 -90 117 -225q139 118 139 229zM96 383q0 125 67 226t193 200q-94 113 -134 195t-40 170q0 143 109 240t291 97
q182 1 277 -81t95 -220q0 -203 -243 -395q174 -174 370 -328v-2q133 203 123 453h260q6 -338 -186 -594q164 -122 268 -192l-172 -199q-176 123 -280 205q-231 -180 -533 -181q-227 0 -346 115t-119 291z" />
    <glyph glyph-name="quotesingle" unicode="'" horiz-adv-x="442" 
d="M352 1438l-33 -520h-196l-33 520h262z" />
    <glyph glyph-name="parenleft" unicode="(" horiz-adv-x="626" 
d="M364 587q0 -513 244 -935l-198 -92q-304 477 -304 1026t306 1026l190 -88q-238 -424 -238 -937z" />
    <glyph glyph-name="parenright" unicode=")" horiz-adv-x="626" 
d="M524 585q0 -548 -305 -1025l-190 88q239 422 239 936t-241 938l198 90q299 -479 299 -1027z" />
    <glyph glyph-name="asterisk" unicode="*" horiz-adv-x="786" 
d="M717 1090l-92 -162l-174 139l32 -221h-186l33 221l-176 -139l-91 159l207 82l-207 82l93 162l174 -139l-33 221h186l-32 -221l174 139l92 -160l-207 -82z" />
    <glyph glyph-name="plus" unicode="+" 
d="M1047 500h-361v-381h-248v381h-358v219h358v379h248v-379h361v-219z" />
    <glyph glyph-name="comma" unicode="," horiz-adv-x="528" 
d="M262 305q104 0 148 -102q59 -141 -54 -332q-68 -117 -192 -225l-109 96q192 205 84 313q-59 70 -20 160t143 90z" />
    <glyph glyph-name="hyphen" unicode="-" horiz-adv-x="684" 
d="M594 463h-504v211h504v-211z" />
    <glyph glyph-name="period" unicode="." horiz-adv-x="528" 
d="M430 144q0 -70 -48 -118t-118 -48t-119 48q-49 50 -49 118t49 118q49 49 119 49t118 -49t48 -118z" />
    <glyph glyph-name="slash" unicode="/" horiz-adv-x="948" 
d="M958 1550l-722 -1880h-259l717 1880h264z" />
    <glyph glyph-name="zero" unicode="0" 
d="M770 678q0 260 -48 357t-154 97t-159 -102q-55 -102 -55 -362t46 -362t156 -103q110 0 162 107q52 108 52 368zM1053 682q-1 -356 -143 -530t-359 -175q-117 0 -202 34q-279 112 -278 635q1 364 137 536t370 172t354 -158q121 -158 121 -514z" />
    <glyph glyph-name="one" unicode="1" 
d="M1032 0h-897v236h334v825l-297 -117l-43 248l410 139h202v-1095h291v-236z" />
    <glyph glyph-name="two" unicode="2" 
d="M1010 0h-906v213l201 197q227 223 297 321t70 185q0 86 -58 142t-165 56q-150 0 -283 -94l-51 233q180 101 397 101t333 -114t116 -264t-70 -271t-262 -304l-162 -151v-2q193 4 379 4h164v-252z" />
    <glyph glyph-name="three" unicode="3" 
d="M684 977q0 160 -244 160q-130 0 -262 -68l-24 221q168 64 374 64t318 -89q113 -89 112 -239q0 -114 -60 -190t-171 -109l-2 -6q117 -14 191 -98t75 -199q0 -209 -162 -328t-430 -119q-152 0 -264 33l25 226q115 -39 258 -39t217 54t74 143q0 90 -73 140q-74 50 -196 50
t-231 -13v203h59q416 0 416 203z" />
    <glyph glyph-name="four" unicode="4" 
d="M645 524v545h-2l-342 -549q90 4 344 4zM1083 289h-184v-289h-258v289h-580l-24 217l506 825h356v-807h184v-235z" />
    <glyph glyph-name="five" unicode="5" 
d="M1001 444q-1 -213 -161 -340t-424 -127q-133 0 -254 29v236q127 -39 266 -39t212 57q73 58 73 156t-81 150t-220 52t-232 -16v729h764v-246h-516v-262q25 2 80 2q233 1 363 -105t130 -276z" />
    <glyph glyph-name="six" unicode="6" 
d="M791 417q1 101 -55 158t-158 57t-160 -60q-60 -62 -60 -155t58 -160t162 -67q102 0 158 63t55 164zM1055 457q0 -221 -132 -351q-131 -130 -357 -129q-226 -1 -355 147t-129 435q0 389 186 591t512 202q96 0 154 -9v-227q-78 14 -168 14q-319 0 -404 -329
q-10 -29 -18 -82h2q100 129 294 129t304 -112t111 -279z" />
    <glyph glyph-name="seven" unicode="7" 
d="M279 1075h-177v256h920v-225q-268 -512 -455 -1106h-301q197 602 453 1079q-119 -4 -440 -4z" />
    <glyph glyph-name="eight" unicode="8" 
d="M772 344q0 74 -57 122t-172 99q-93 -53 -141 -102t-48 -119t56 -114t153 -44q96 0 153 42q56 42 56 116zM748 1004q0 64 -50 105q-50 42 -137 42q-88 0 -135 -43q-47 -42 -47 -106t46 -108t150 -93q85 47 129 93t44 110zM1042 367q0 -181 -141 -285t-354 -104t-339 94
t-126 254q0 108 66 188t180 152q-213 119 -213 313q0 168 129 271q129 104 332 104q204 0 320 -92t116 -240q0 -178 -217 -317q117 -63 182 -141t65 -197z" />
    <glyph glyph-name="nine" unicode="9" 
d="M758 912q0 98 -58 164t-157 65q-99 1 -155 -63t-56 -164t55 -158t155 -60q100 0 158 60q58 58 58 156zM1040 772q0 -393 -186 -593t-510 -199q-102 0 -188 14v231q102 -25 204 -24q317 0 394 315q4 24 18 80h-2q-102 -115 -291 -115t-299 112t-110 286q0 217 135 346
t357 129t350 -146t128 -436z" />
    <glyph glyph-name="colon" unicode=":" horiz-adv-x="610" 
d="M330 311q70 0 118 -49t48 -118q0 -70 -48 -118t-118 -48t-119 48q-49 50 -49 118t49 118q49 49 119 49zM330 891q70 0 118 -49t48 -118t-48 -118t-118 -49t-119 49t-49 118t49 118t119 49z" />
    <glyph glyph-name="semicolon" unicode=";" horiz-adv-x="610" 
d="M327 305q101 0 149 -92t-9 -252t-236 -315l-108 96q188 205 84 313q-59 70 -21 160q40 90 141 90zM330 891q70 0 118 -49t48 -118t-48 -118t-118 -49t-119 49t-49 118t49 118t119 49z" />
    <glyph glyph-name="less" unicode="&#x3c;" 
d="M954 190l-172 -178l-653 604l651 603l172 -172l-485 -429z" />
    <glyph glyph-name="equal" unicode="=" 
d="M1018 307h-909v211h909v-211zM1018 698h-909v211h909v-211z" />
    <glyph glyph-name="greater" unicode="&#x3e;" 
d="M997 614l-651 -602l-172 172l485 428l-487 428l172 179z" />
    <glyph glyph-name="question" unicode="?" horiz-adv-x="923" 
d="M555 133q0 -67 -46 -111t-114 -44q-67 0 -113 44q-46 46 -46 112t46 110q46 45 114 45t113 -45q46 -45 46 -111zM827 1051q1 -80 -29 -147q-30 -66 -72 -106t-89 -86t-82 -85t-48 -103t11 -139h-254q-33 92 -24 167q8 75 53 146t146 153q102 82 102 173q0 90 -108 145
t-296 62l33 237q319 -8 488 -128t169 -289z" />
    <glyph glyph-name="at" unicode="@" horiz-adv-x="1986" 
d="M1012 932q-98 0 -156 -106t-59 -232q0 -125 63 -125t126 92q62 92 97 268l19 91q-41 12 -90 12zM164 573q0 403 262 669t628 265q366 0 558 -187q192 -186 192 -468t-137 -434t-356 -152q-109 0 -164 56t-51 141h-6q-37 -76 -116 -136q-79 -61 -175 -61t-151 75
q-54 75 -54 218q0 243 122 395t357 152q141 0 250 -41l-72 -406q-17 -100 5 -144t85 -44q102 0 165 90q62 90 62 281q0 192 -124 324q-126 132 -396 132t-458 -194t-189 -504q-1 -264 145 -408t437 -145q180 0 358 59l39 -204q-209 -70 -430 -70q-378 0 -582 199t-204 542z
" />
    <glyph glyph-name="A" unicode="A" horiz-adv-x="1282" 
d="M821 494l-137 393q-35 92 -57 190h-2q-39 -143 -56 -190l-137 -393h389zM1280 0h-295l-96 283h-522l-97 -283h-268l483 1382h301z" />
    <glyph glyph-name="B" unicode="B" horiz-adv-x="1187" 
d="M819 420q0 190 -293 190q-88 0 -116 -2v-387q66 -8 170 -8t172 55q67 56 67 152zM782 1006q0 170 -223 170q-55 0 -149 -5v-360q33 -2 108 -2q264 0 264 197zM1065 1049q0 -103 -55 -187t-154 -123v-4q120 -25 184 -111t64 -182q0 -181 -119 -306q-61 -64 -174 -102
t-262 -38l-406 4v1380q195 10 439 10t363 -87q120 -88 120 -254z" />
    <glyph glyph-name="C" unicode="C" horiz-adv-x="1159" 
d="M726 -16q-500 0 -615 413q-33 115 -33 250q0 340 177 544t515 204q156 0 295 -41l-37 -244q-129 47 -272 47q-188 0 -286 -127t-99 -338q0 -467 403 -467q143 0 262 58l41 -236q-168 -63 -351 -63z" />
    <glyph glyph-name="D" unicode="D" horiz-adv-x="1366" 
d="M555 219q205 1 327 119t122 352t-102 356t-331 121q-96 0 -161 -6v-932q61 -10 145 -10zM1290 715q0 -347 -207 -535t-555 -188q-94 0 -385 10v1378q270 10 447 11q700 0 700 -676z" />
    <glyph glyph-name="E" unicode="E" horiz-adv-x="1009" 
d="M895 0h-752v1382h752v-223h-485v-340h460v-217h-460v-375h485v-227z" />
    <glyph glyph-name="F" unicode="F" horiz-adv-x="952" 
d="M883 1157h-473v-356h446v-219h-446v-582h-267v1382h740v-225z" />
    <glyph glyph-name="G" unicode="G" horiz-adv-x="1382" 
d="M772 -20q-328 0 -513 181t-185 505t209 530q209 207 559 207q203 0 391 -60l-53 -241q-162 63 -362 63t-328 -127t-128 -351t116 -346t325 -122q96 0 176 25v481h266v-659q-213 -86 -473 -86z" />
    <glyph glyph-name="H" unicode="H" horiz-adv-x="1406" 
d="M1262 0h-267v600h-585v-600h-267v1382h267v-553h585v553h267v-1382z" />
    <glyph glyph-name="I" unicode="I" horiz-adv-x="552" 
d="M410 0h-267v1382h267v-1382z" />
    <glyph glyph-name="J" unicode="J" horiz-adv-x="686" 
d="M545 387q0 -406 -373 -405q-78 0 -172 16v229q55 -20 130 -20t112 42t37 148v985h266v-995z" />
    <glyph glyph-name="K" unicode="K" horiz-adv-x="1222" 
d="M410 0h-267v1382h267v-626l448 626h324l-506 -667l528 -715h-350l-444 664v-664z" />
    <glyph glyph-name="L" unicode="L" horiz-adv-x="878" 
d="M858 0h-715v1382h267v-1149h448v-233z" />
    <glyph glyph-name="M" unicode="M" horiz-adv-x="1804" 
d="M1741 0h-281l-98 659q-23 137 -43 330h-4q-39 -182 -76 -295l-219 -694h-264l-211 645q-55 168 -88 344h-4q-8 -129 -39 -352l-78 -637h-270l213 1382h311l231 -710q39 -121 78 -291h2q31 145 78 287l238 714h309z" />
    <glyph glyph-name="N" unicode="N" horiz-adv-x="1431" 
d="M1288 0h-344l-405 698q-72 127 -150 297q12 -178 12 -501v-494h-258v1382h346l385 -659q57 -98 170 -326q-14 195 -14 555v430h258v-1382z" />
    <glyph glyph-name="O" unicode="O" horiz-adv-x="1439" 
d="M1087 689q0 230 -95 353t-261 123t-272 -121q-107 -121 -107 -345t91 -352t257 -128t277 120q110 120 110 350zM1372 716q0 -339 -194 -539t-492 -200q-299 1 -459 185q-159 184 -159 515t194 529t482 199q288 0 458 -175t170 -514z" />
    <glyph glyph-name="P" unicode="P" horiz-adv-x="1087" 
d="M764 946q0 227 -260 228q-63 0 -94 -3v-460q41 -6 77 -6q125 2 201 66t76 175zM1040 962q0 -206 -147 -342t-393 -137q-57 0 -90 4v-487h-267v1382q149 8 387 8t374 -110q136 -112 136 -318z" />
    <glyph glyph-name="Q" unicode="Q" horiz-adv-x="1439" 
d="M1087 689q0 230 -95 353t-261 123t-272 -121q-107 -121 -107 -345t91 -352t257 -128t277 120q110 120 110 350zM1436 -416q-208 -27 -310 -4q-102 22 -241 48t-267 10v235q150 17 283 -7t262 -46t273 -2v-234zM1372 716q0 -339 -194 -539t-492 -200q-299 1 -459 185
q-159 184 -159 515t194 529t482 199q288 0 458 -175t170 -514z" />
    <glyph glyph-name="R" unicode="R" horiz-adv-x="1161" 
d="M764 975q0 199 -250 199q-63 0 -104 -7v-399q37 -4 96 -4q118 0 188 58t70 153zM410 571v-571h-267v1382q145 8 398 9q502 0 501 -390q0 -150 -96 -255t-244 -130q10 -14 52 -68t59 -83l322 -465h-330l-373 571h-22z" />
    <glyph glyph-name="S" unicode="S" horiz-adv-x="1030" 
d="M956 424q0 -195 -148 -321t-386 -126q-180 0 -320 37l29 256q145 -59 274 -59q259 0 259 180q0 72 -60 118t-146 77q-85 30 -170 70t-146 123q-60 83 -60 210q0 188 138 302t384 114q123 0 250 -27l-25 -233q-121 39 -235 39t-172 -45q-57 -45 -57 -117t61 -118t147 -78
t173 -74q86 -42 148 -124q62 -83 62 -204z" />
    <glyph glyph-name="T" unicode="T" horiz-adv-x="1044" 
d="M1014 1155h-359v-1155h-266v1155h-358v227h983v-227z" />
    <glyph glyph-name="U" unicode="U" horiz-adv-x="1394" 
d="M1251 537q0 -279 -147 -419t-444 -140t-413 153q-104 137 -104 348v903h267v-886q0 -142 62 -220t221 -78t227 74t67 248v862h264v-845z" />
    <glyph glyph-name="V" unicode="V" horiz-adv-x="1286" 
d="M1278 1382l-483 -1382h-308l-481 1382h291l268 -809q53 -158 80 -266h4q31 123 84 283l273 792h272z" />
    <glyph glyph-name="W" unicode="W" horiz-adv-x="1947" 
d="M1898 1382l-352 -1382h-327l-201 762q-25 88 -53 285h-2q-14 -143 -52 -279l-200 -768h-310l-352 1382h285l188 -764q31 -125 51 -280h2q29 184 54 272l211 772h282l213 -768q39 -147 56 -268h2q23 147 51 264l188 772h266z" />
    <glyph glyph-name="X" unicode="X" horiz-adv-x="1286" 
d="M1266 0h-336l-297 508l-297 -508h-316l441 707l-414 675h309l281 -479l278 479h304l-408 -673z" />
    <glyph glyph-name="Y" unicode="Y" horiz-adv-x="1148" 
d="M705 0h-267v487l-432 895h291l182 -397q51 -115 94 -229h5q29 80 110 256l174 370h283l-440 -893v-489z" />
    <glyph glyph-name="Z" unicode="Z" horiz-adv-x="1099" 
d="M1010 0h-918v205l498 811q39 63 90 131q-98 -4 -252 -4h-319v239h892v-213l-526 -831q-43 -70 -63 -96q35 4 299 4h299v-246z" />
    <glyph glyph-name="bracketleft" unicode="[" horiz-adv-x="671" 
d="M598 -420h-453v2011h453v-207h-207v-1593h207v-211z" />
    <glyph glyph-name="backslash" unicode="\" horiz-adv-x="980" 
d="M989 -330h-258l-717 1880h258z" />
    <glyph glyph-name="bracketright" unicode="]" horiz-adv-x="671" 
d="M524 -420h-450v211h205v1593h-205v207h450v-2011z" />
    <glyph glyph-name="asciicircum" unicode="^" 
d="M999 784l-186 -94l-270 506l-256 -506l-174 92l336 600h200z" />
    <glyph glyph-name="underscore" unicode="_" 
d="M1126 -504h-1126v209h1126v-209z" />
    <glyph glyph-name="grave" unicode="`" horiz-adv-x="765" 
d="M639 1288l-98 -141l-371 221l121 176z" />
    <glyph glyph-name="a" unicode="a" horiz-adv-x="1073" 
d="M666 426v31q-338 0 -338 -158q0 -51 32 -85t89 -34q93 0 155 75t62 171zM686 0q0 106 10 172l-2 2q-37 -88 -125 -141q-87 -53 -211 -53t-202 82t-78 208q0 176 156 267q157 90 432 90v51q0 82 -46 122t-171 40t-269 -72l-47 207q172 65 390 65q217 0 311 -87t94 -257
v-434q0 -135 6 -262h-248z" />
    <glyph glyph-name="b" unicode="b" horiz-adv-x="1144" 
d="M797 535q0 287 -174 286q-99 0 -159 -97t-61 -230v-287q55 -18 138 -19q256 1 256 347zM696 1038q182 0 278 -125t97 -369q0 -244 -146 -405q-146 -160 -405 -159q-205 0 -379 49v1466h262v-438q0 -113 -16 -199h2q39 84 121 132t186 48z" />
    <glyph glyph-name="c" unicode="c" horiz-adv-x="870" 
d="M528 -18q-219 0 -339 120q-119 120 -119 372q0 251 132 407t386 155q123 0 223 -35l-41 -225q-96 39 -200 39t-166 -84q-60 -84 -60 -229q0 -295 238 -295q106 0 198 41l35 -219q-123 -47 -287 -47z" />
    <glyph glyph-name="d" unicode="d" horiz-adv-x="1142" 
d="M739 528v285q-76 16 -137 16q-256 0 -256 -346q0 -289 174 -288q98 0 159 98q60 98 60 235zM999 0h-243q0 86 12 170h-4q-41 -88 -125 -140t-197 -53q-182 0 -276 127t-94 370t144 403t394 159q70 0 129 -8v467h260v-1495z" />
    <glyph glyph-name="e" unicode="e" horiz-adv-x="1052" 
d="M540 848q-82 0 -136 -55t-64 -152h375q2 95 -45 151t-130 56zM975 586q0 -61 -8 -121h-631q-2 -281 280 -281q150 0 295 62l29 -199q-166 -68 -369 -67q-502 0 -501 520q0 240 127 390t345 150t326 -126t107 -328z" />
    <glyph glyph-name="f" unicode="f" horiz-adv-x="724" 
d="M615 1298q-160 0 -160 -194v-86h237v-203h-237v-815h-260v815h-179v203h179v82q0 209 99 310t306 101q94 0 166 -16l-18 -215q-53 18 -133 18z" />
    <glyph glyph-name="g" unicode="g" horiz-adv-x="1116" 
d="M328 -153q0 -160 229 -160q111 0 179 47t69 123q0 125 -160 131l-176 6h-47q-94 -68 -94 -147zM719 671q0 83 -48 131t-136 48q-89 0 -139 -50t-50 -130t49 -127t137 -47t138 46q49 46 49 129zM1065 -109q0 -169 -156 -287t-382 -118t-342 78t-115 225q0 75 46 145
t111 105q-100 47 -100 158q0 57 34 107t87 73q-152 82 -152 278q0 164 118 275t331 110q80 0 166 -22h346v-205h-139q51 -47 51 -129q0 -168 -112 -267t-325 -100q-41 0 -79 9q-49 -23 -49 -62t33 -51q34 -12 124 -16l158 -7q346 -12 346 -299z" />
    <glyph glyph-name="h" unicode="h" horiz-adv-x="1169" 
d="M1026 0h-260v651q0 84 -28 126t-97 42q-98 0 -168 -97t-70 -233v-489h-262v1495h262v-438q0 -127 -18 -207h4q100 188 334 188q303 0 303 -323v-715z" />
    <glyph glyph-name="i" unicode="i" horiz-adv-x="544" 
d="M403 0h-262v1018h262v-1018zM436 1328q0 -67 -48 -113t-116 -46t-114 46t-47 112q0 66 47 113q46 47 114 47t116 -46t48 -113z" />
    <glyph glyph-name="j" unicode="j" horiz-adv-x="555" 
d="M412 -76q0 -216 -90 -324t-306 -108q-76 0 -143 21l16 223q63 -25 132 -25t100 41t31 146v1120h260v-1094zM281 1487q67 0 115 -46t48 -113t-48 -113t-116 -46t-115 46q-48 46 -48 112t48 113t116 47z" />
    <glyph glyph-name="k" unicode="k" horiz-adv-x="1071" 
d="M403 0h-262v1495h262v-901l297 424h320l-356 -465l383 -553h-328l-316 504v-504z" />
    <glyph glyph-name="l" unicode="l" horiz-adv-x="544" 
d="M403 0h-262v1495h262v-1495z" />
    <glyph glyph-name="m" unicode="m" horiz-adv-x="1773" 
d="M1632 0h-262v643q0 88 -27 132t-105 44t-151 -94q-72 -94 -71 -238v-487h-258v645q0 84 -26 129t-106 45t-152 -96q-71 -96 -71 -236v-487h-262v1018h248q0 -102 -14 -182l4 -2q47 94 135 149t201 55q229 0 280 -202q41 84 127 143t205 59q305 0 305 -338v-700z" />
    <glyph glyph-name="n" unicode="n" horiz-adv-x="1169" 
d="M1026 0h-260v651q0 84 -28 126t-97 42q-98 0 -168 -96t-70 -231v-492h-262v1018h248q0 -109 -14 -182h2q47 92 136 147t210 55q303 0 303 -323v-715z" />
    <glyph glyph-name="o" unicode="o" horiz-adv-x="1132" 
d="M793 514q0 303 -224 303q-95 0 -163 -76t-68 -223q0 -315 227 -315q100 1 164 81t64 230zM1063 536q0 -248 -145 -402q-144 -154 -372 -154t-353 124t-125 376t144 406t372 152q228 0 353 -127q126 -127 126 -375z" />
    <glyph glyph-name="p" unicode="p" horiz-adv-x="1144" 
d="M797 535q0 289 -174 288q-99 0 -159 -98t-61 -236v-282q61 -18 138 -19q256 1 256 347zM698 1038q180 0 276 -124t97 -372q0 -248 -138 -403q-138 -154 -398 -153q-74 0 -132 8v-488h-262v1512h244q0 -104 -10 -170h4q92 190 319 190z" />
    <glyph glyph-name="q" unicode="q" horiz-adv-x="1144" 
d="M741 532v283q-76 14 -137 14q-256 0 -256 -346q0 -289 172 -288q100 0 161 99q60 99 60 238zM451 -23q-377 0 -377 493q0 249 145 408t410 158q188 0 372 -30v-1500h-260v461q0 121 15 197l-4 2q-41 -88 -121 -138t-180 -51z" />
    <glyph glyph-name="r" unicode="r" horiz-adv-x="727" 
d="M403 416v-416h-262v1018h248q0 -96 -18 -205h4q94 245 323 225l-12 -256q-141 29 -212 -63t-71 -303z" />
    <glyph glyph-name="s" unicode="s" horiz-adv-x="854" 
d="M774 317q0 -153 -123 -245t-325 -92q-133 0 -228 26l19 219q95 -41 193 -41t143 30t45 79t-43 79t-103 49t-122 47q-60 28 -103 89t-43 158q0 143 110 234t320 91q90 0 186 -20l-12 -205q-90 27 -184 27q-150 0 -150 -105q0 -47 43 -77t105 -50t124 -49t105 -91t43 -153z
" />
    <glyph glyph-name="t" unicode="t" horiz-adv-x="768" 
d="M188 815h-176v203h176v313l261 70v-383h247v-203h-247v-446q1 -96 27 -132t94 -36t116 14l19 -207q-115 -29 -222 -28q-168 0 -231 70t-64 249v516z" />
    <glyph glyph-name="u" unicode="u" horiz-adv-x="1167" 
d="M1026 0h-246q0 119 13 182h-2q-104 -203 -347 -202q-303 0 -303 323v715h260v-651q0 -84 29 -126t98 -42q98 0 167 96t69 231v492h262v-1018z" />
    <glyph glyph-name="v" unicode="v" horiz-adv-x="1036" 
d="M1030 1018l-381 -1018h-266l-377 1018h287l162 -459q39 -113 67 -225h4q31 129 62 217l164 467h278z" />
    <glyph glyph-name="w" unicode="w" horiz-adv-x="1630" 
d="M1610 1018l-320 -1018h-284l-148 453q-25 80 -57 227h-2q-25 -117 -70 -256l-129 -424h-270l-312 1018h287l109 -385q68 -252 80 -307h2q27 147 73 295l123 397h252l125 -385q55 -172 82 -307h4q33 170 72 295l114 397h269z" />
    <glyph glyph-name="x" unicode="x" horiz-adv-x="1081" 
d="M1059 0h-330l-197 342l-196 -342h-313l350 514l-330 504h313l197 -336l199 336h288l-317 -502z" />
    <glyph glyph-name="y" unicode="y" horiz-adv-x="1028" 
d="M106 -510q-76 0 -143 14l31 226q66 -20 129 -21q162 0 233 201l31 90l-375 1018h291l137 -389q37 -109 80 -281h2q33 137 99 324l120 346h281l-404 -1075q-96 -256 -212 -355q-117 -98 -300 -98z" />
    <glyph glyph-name="z" unicode="z" horiz-adv-x="921" 
d="M825 0h-733v186l410 602q-78 -4 -217 -4h-181v234h713v-187l-401 -593q43 2 231 2h178v-240z" />
    <glyph glyph-name="braceleft" unicode="{" horiz-adv-x="741" 
d="M676 -420h-43q-199 0 -286 109t-87 348v276q0 123 -48 173t-157 57v196q111 7 158 53t47 169v178q0 229 87 341t286 111h43v-207q-100 0 -136 -48t-36 -193v-176q0 -291 -189 -324v-2q188 -31 189 -332v-274q0 -147 36 -195t136 -49v-211z" />
    <glyph glyph-name="bar" unicode="|" horiz-adv-x="589" 
d="M395 -494h-209v2048h209v-2048z" />
    <glyph glyph-name="braceright" unicode="}" horiz-adv-x="737" 
d="M487 37q0 -241 -87 -349t-283 -108h-45v211q102 0 138 48t36 196v274q0 301 188 332v2q-188 27 -188 318v182q0 145 -36 193t-138 48v207h45q199 1 285 -111t85 -341v-172q-1 -127 47 -174t158 -54v-196q-106 -7 -155 -57t-50 -173v-276z" />
    <glyph glyph-name="asciitilde" unicode="~" 
d="M1040 1159q0 -151 -83 -239t-215 -88t-202 74q-30 32 -54 64q-57 76 -109 74q-92 0 -96 -163h-195v37q0 147 84 237t215 90t204 -76q29 -31 53 -63q57 -76 110 -76q92 0 96 166h192v-37z" />
    <glyph glyph-name="nbspace" unicode="&#xa0;" horiz-adv-x="446" 
 />
    <glyph glyph-name="exclamdown" unicode="&#xa1;" horiz-adv-x="657" 
d="M465 -432h-307l39 1065h225zM473 885q0 -66 -46 -111t-114 -45q-67 0 -113 45t-46 111q0 67 46 111t114 44t113 -44q46 -44 46 -111z" />
    <glyph glyph-name="cent" unicode="&#xa2;" 
d="M745 0h-196v201q-195 20 -297 143q-102 122 -102 318t104 324t295 167v178h196v-170q109 -6 211 -43l-53 -211q-96 45 -215 45q-120 0 -192 -70t-72 -198q0 -127 71 -197q71 -69 195 -69t219 53l62 -209q-102 -49 -226 -61v-201z" />
    <glyph glyph-name="sterling" unicode="&#xa3;" 
d="M1004 0h-865v178q164 133 164 279q0 47 -10 104h-195v203h168q-16 119 -16 174q0 416 452 416q121 0 252 -33l-55 -219q-109 39 -211 39q-174 0 -174 -180q0 -49 18 -197h310v-203h-285q8 -43 8 -96q0 -139 -116 -244q86 4 149 4h406v-225z" />
    <glyph glyph-name="currency" unicode="&#xa4;" 
d="M739 684q0 203 -178 203q-74 1 -124 -55t-50 -153t43 -155t125 -59q82 1 133 57t51 162zM558 274q-66 0 -126 19l-141 -195l-203 144l139 174q-69 100 -69 251t80 253l-148 188l199 141l145 -198q66 27 144 27t135 -23l143 196l199 -145l-146 -182q59 -90 59 -234
t-75 -246l162 -202l-201 -146l-158 211q-72 -33 -138 -33z" />
    <glyph glyph-name="yen" unicode="&#xa5;" 
d="M1012 655v-168h-318v-120h318v-166h-318v-201h-264v201h-317v166h317v120h-317v168h254l-326 676h289l153 -342q41 -100 80 -207h2q37 100 88 213l152 336h282l-329 -676h254z" />
    <glyph glyph-name="brokenbar" unicode="&#xa6;" horiz-adv-x="589" 
d="M395 -494h-209v775h209v-775zM395 801h-209v753h209v-753z" />
    <glyph glyph-name="section" unicode="&#xa7;" horiz-adv-x="1085" 
d="M360 712q0 -110 120 -231q46 -45 155 -139q65 47 65 129t-60 151q-60 70 -214 209q-66 -51 -66 -119zM938 506q0 -176 -158 -297q76 -96 76 -225q0 -130 -114 -228t-347 -98q-94 0 -170 20l17 220q82 -25 162 -25t126 35q45 35 45 88t-47 106q-48 52 -114 106t-132 116
t-112 150q-47 89 -47 192q0 180 156 297q-76 94 -76 227t105 227t325 94q100 0 168 -16l-15 -217q-70 20 -145 20q-158 0 -158 -114q0 -81 161 -213q68 -55 134 -120t113 -155t47 -190z" />
    <glyph glyph-name="dieresis" unicode="&#xa8;" horiz-adv-x="1118" 
d="M475 1328q0 -58 -41 -100t-100 -42t-101 42q-41 42 -41 100t41 99t101 41t100 -41q41 -41 41 -99zM889 1328q0 -58 -41 -100t-100 -42t-101 42q-41 42 -41 100t41 99t101 41t100 -41q41 -41 41 -99z" />
    <glyph glyph-name="copyright" unicode="&#xa9;" horiz-adv-x="1560" 
d="M444 675q0 163 92 268t269 106q92 0 168 -31l-29 -174q-53 35 -129 35q-154 0 -153 -199q0 -178 143 -178q84 0 143 28l35 -168q-88 -41 -209 -40q-156 0 -243 95t-87 258zM1280 682q0 209 -146 357q-146 149 -356 149t-356 -148q-148 -148 -148 -356q0 -209 148 -357
q148 -149 356 -149q210 0 356 148t146 356zM1479 684q0 -291 -205 -496q-205 -204 -498 -204q-294 0 -496 204t-202 494q0 291 205 496q205 204 495 204t496 -204q205 -204 205 -494z" />
    <glyph glyph-name="ordfeminine" unicode="&#xaa;" horiz-adv-x="825" 
d="M279 874q0 -65 88 -65q48 0 85 49t37 98v21q-211 0 -210 -103zM739 360h-637v203h637v-203zM500 666q0 57 8 100l-2 2q-23 -51 -81 -86q-59 -35 -147 -35t-142 54t-54 145q0 130 113 198t294 66v31q-1 96 -115 96t-229 -55l-18 176q125 45 279 45t223 -67q68 -67 67 -171
v-325q0 -125 2 -174h-198z" />
    <glyph glyph-name="guillemotleft" unicode="&#xab;" horiz-adv-x="1093" 
d="M516 295l-211 -94l-219 397l225 403l201 -92l-174 -309zM977 307l-205 -96l-242 387l246 393l197 -94l-189 -297z" />
    <glyph glyph-name="logicalnot" unicode="&#xac;" 
d="M1001 195h-231v305h-690v219h921v-524z" />
    <glyph glyph-name="registered" unicode="&#xae;" horiz-adv-x="1155" 
d="M627 1174q0 49 -62 49h-33v-105h23q72 1 72 56zM532 1034v-174h-122v457h190q162 0 162 -127q0 -102 -92 -129q18 -20 35 -55l67 -146h-147l-78 174h-15zM897 1085q0 133 -94 229t-226 95q-133 0 -227 -94q-94 -93 -94 -227t94 -229t228 -95t226 94q93 94 93 227z
M1057 1087q1 -199 -141 -335t-340 -138q-198 0 -338 136t-140 334t140 336t341 138q200 0 339 -136t139 -335z" />
    <glyph glyph-name="macron" unicode="&#xaf;" horiz-adv-x="808" 
d="M680 1229h-551v188h551v-188z" />
    <glyph glyph-name="degree" unicode="&#xb0;" horiz-adv-x="794" 
d="M502 1225q0 51 -28 87t-79 36t-83 -34t-32 -89t32 -88q30 -33 80 -33t80 35t30 86zM696 1223q0 -129 -93 -207t-226 -78t-212 77t-79 207t94 210t230 80t212 -80q74 -80 74 -209z" />
    <glyph glyph-name="plusminus" unicode="&#xb1;" 
d="M1038 0h-950v219h950v-219zM1047 709h-359v-375h-250v375h-358v217h358v372h250v-372h359v-217z" />
    <glyph glyph-name="twosuperior" unicode="&#xb2;" horiz-adv-x="659" 
d="M567 725h-481v143l119 101q115 96 114 151q0 68 -77 68q-57 0 -113 -35l-37 156q114 43 226 43t172 -54t60 -147q0 -92 -134 -207l-68 -57h219v-162z" />
    <glyph glyph-name="threesuperior" unicode="&#xb3;" horiz-adv-x="638" 
d="M549 907q0 -98 -80 -150t-233 -52q-70 0 -152 16l20 133q47 -14 107 -14q109 0 108 65q0 88 -192 62v120h29q152 0 151 74q-1 57 -71 57t-119 -26l-27 127q80 33 200 33t177 -47t57 -117q0 -104 -92 -148q53 -6 85 -45t32 -88z" />
    <glyph glyph-name="acute" unicode="&#xb4;" horiz-adv-x="804" 
d="M649 1368l-370 -221l-97 141l346 256z" />
    <glyph glyph-name="paragraph" unicode="&#xb6;" horiz-adv-x="1218" 
d="M113 932q0 202 134 326t351 124v-909q-240 -2 -362 127t-123 332zM1114 1174h-133v-1371h-367v209h144v1370h356v-208z" />
    <glyph glyph-name="periodcentered" unicode="&#xb7;" horiz-adv-x="550" 
d="M446 610q0 -70 -50 -120t-121 -50t-119 50t-50 120q0 70 50 119t120 49t120 -49t50 -119z" />
    <glyph glyph-name="cedilla" unicode="&#xb8;" horiz-adv-x="819" 
d="M524 -82q147 -203 -41 -397h-196q78 92 84 163t-64 166z" />
    <glyph glyph-name="onesuperior" unicode="&#xb9;" horiz-adv-x="649" 
d="M467 725h-213v440l-133 -57l-39 149l188 74h197v-606z" />
    <glyph glyph-name="ordmasculine" unicode="&#xba;" horiz-adv-x="872" 
d="M575 1032q0 188 -141 189q-59 0 -101 -47t-42 -146q0 -197 137 -197q66 1 106 49t41 152zM760 360h-651v203h651v-203zM788 1046q0 -184 -105 -290t-263 -106t-250 89q-92 91 -92 273t105 287t263 105t250 -87t92 -271z" />
    <glyph glyph-name="guillemotright" unicode="&#xbb;" horiz-adv-x="1093" 
d="M563 604l-248 -393l-196 94l190 297l-192 293l205 96zM1008 604l-226 -403l-202 92l176 309l-178 305l210 94z" />
    <glyph glyph-name="onequarter" unicode="&#xbc;" horiz-adv-x="1484" 
d="M467 725h-213v440l-133 -57l-39 149l188 74h197v-606zM1303 1255l-1027 -1300l-165 117l1026 1300zM1384 100h-94v-100h-186v100h-289l-12 133l209 373h278v-360h94v-146zM1104 244v239l-137 -239h137z" />
    <glyph glyph-name="onehalf" unicode="&#xbd;" horiz-adv-x="1488" 
d="M465 725h-211v440l-135 -57l-39 149l188 74h197v-606zM1300 1255l-1026 -1300l-163 117l1026 1300zM1376 0h-481v143l119 101q115 96 114 151q0 68 -69 68t-121 -35l-37 156q104 43 221 43q117 -1 177 -55q61 -54 61 -146t-135 -207l-68 -57h219v-162z" />
    <glyph glyph-name="threequarters" unicode="&#xbe;" horiz-adv-x="1495" 
d="M557 907q0 -98 -80 -150q-81 -52 -201 -52t-182 16l21 133q53 -16 106 -16q106 0 107 67q0 88 -193 62v120h29q152 0 151 74q0 57 -69 57t-119 -26l-27 127q80 33 199 33t177 -47t59 -117q0 -102 -95 -148q53 -6 85 -45t32 -88zM1313 1255l-1028 -1300l-164 117
l1026 1300zM1395 100h-95v-100h-186v100h-289l-12 133l209 373h278v-360h95v-146zM1114 244v239l-137 -239h137z" />
    <glyph glyph-name="questiondown" unicode="&#xbf;" horiz-adv-x="923" 
d="M96 -33q0 80 30 147q30 66 72 106t89 86t81 85t47 103t-12 139h256q33 -92 25 -167t-39 -124q-58 -92 -160 -174q-102 -83 -102 -173q0 -91 107 -147q108 -55 296 -61l-32 -238q-319 8 -489 128q-169 120 -169 290zM688 885q0 -66 -46 -111t-114 -45t-114 45t-45 111
q0 67 46 111q45 44 113 44t114 -44t46 -111z" />
    <glyph glyph-name="Agrave" unicode="&#xc0;" horiz-adv-x="1282" 
d="M821 494l-137 393q-35 92 -57 190h-2q-39 -143 -56 -190l-137 -393h389zM1280 0h-295l-96 283h-522l-97 -283h-268l483 1382h301zM762 1610l-43 -144l-440 109l59 188z" />
    <glyph glyph-name="Aacute" unicode="&#xc1;" horiz-adv-x="1282" 
d="M821 494l-137 393q-35 92 -57 190h-2q-39 -143 -56 -190l-137 -393h389zM1280 0h-295l-96 283h-522l-97 -283h-268l483 1382h301zM946 1575l-440 -109l-43 144l424 153z" />
    <glyph glyph-name="Acircumflex" unicode="&#xc2;" horiz-adv-x="1282" 
d="M821 494l-137 393q-35 92 -57 190h-2q-39 -143 -56 -190l-137 -393h389zM1280 0h-295l-96 283h-522l-97 -283h-268l483 1382h301zM971 1595l-62 -131l-280 123l-277 -123l-59 127l338 178z" />
    <glyph glyph-name="Atilde" unicode="&#xc3;" horiz-adv-x="1282" 
d="M821 494l-137 393q-35 92 -57 190h-2q-39 -143 -56 -190l-137 -393h389zM1280 0h-295l-96 283h-522l-97 -283h-268l483 1382h301zM750 1491q-78 0 -154 48t-109 48q-70 0 -118 -88l-129 90q94 168 256 168q78 0 154 -48t108 -48q66 0 119 86l129 -88q-94 -168 -256 -168z
" />
    <glyph glyph-name="Adieresis" unicode="&#xc4;" horiz-adv-x="1282" 
d="M821 494l-137 393q-35 92 -57 190h-2q-39 -143 -56 -190l-137 -393h389zM1280 0h-295l-96 283h-522l-97 -283h-268l483 1382h301zM532 1610q0 -53 -36 -89t-89 -36q-52 0 -90 37q-37 37 -37 89t38 89t90 37t88 -37t36 -90zM975 1611q0 -52 -37 -89t-90 -37t-89 36t-36 89
t37 90t89 37t89 -37t37 -89z" />
    <glyph glyph-name="Aring" unicode="&#xc5;" horiz-adv-x="1282" 
d="M819 494l-129 364q-35 92 -63 217h-2q-27 -115 -66 -227l-125 -354h385zM745 1481q0 45 -31 77q-32 32 -77 32t-76 -32t-31 -77t31 -77t76 -32t77 32q31 32 31 77zM377 1478q0 108 76 180q75 71 185 71t184 -71q74 -72 75 -180q0 -108 -84 -171l467 -1307h-295l-96 283
h-522l-97 -283h-268l459 1309q-84 61 -84 169z" />
    <glyph glyph-name="AE" unicode="&#xc6;" horiz-adv-x="1607" 
d="M745 514v645h-4q-63 -160 -127 -289l-182 -356h313zM1493 0h-748v305h-403l-147 -305h-273l684 1382h873v-223h-478v-340h461v-217h-461v-375h492v-227z" />
    <glyph glyph-name="Ccedilla" unicode="&#xc7;" horiz-adv-x="1159" 
d="M741 -82q147 -203 -41 -397h-196q78 92 84 163t-64 166zM726 -16q-500 0 -615 413q-33 115 -33 250q0 340 177 544t515 204q156 0 295 -41l-37 -244q-129 47 -272 47q-188 0 -286 -127t-99 -338q0 -467 403 -467q143 0 262 58l41 -236q-168 -63 -351 -63z" />
    <glyph glyph-name="Egrave" unicode="&#xc8;" horiz-adv-x="1009" 
d="M895 0h-752v1382h752v-223h-485v-340h460v-217h-460v-375h485v-227zM676 1610l-43 -144l-443 109l60 188z" />
    <glyph glyph-name="Eacute" unicode="&#xc9;" horiz-adv-x="1009" 
d="M895 0h-752v1382h752v-223h-485v-340h460v-217h-460v-375h485v-227zM858 1575l-440 -109l-43 144l424 153z" />
    <glyph glyph-name="Ecircumflex" unicode="&#xca;" horiz-adv-x="1009" 
d="M895 0h-752v1382h752v-223h-485v-340h460v-217h-460v-375h485v-227zM852 1595l-64 -131l-278 123l-277 -123l-59 127l338 178z" />
    <glyph glyph-name="Edieresis" unicode="&#xcb;" horiz-adv-x="1009" 
d="M895 0h-752v1382h752v-223h-485v-340h460v-217h-460v-375h485v-227zM416 1611q0 -52 -37 -89t-89 -37t-89 36t-37 89t37 90t88 37t89 -37t38 -89zM856 1610q0 -53 -37 -89t-89 -36t-89 37t-37 89t38 89t89 37t88 -37t37 -90z" />
    <glyph glyph-name="Igrave" unicode="&#xcc;" horiz-adv-x="552" 
d="M410 0h-267v1382h267v-1382zM455 1610l-43 -144l-443 109l62 188z" />
    <glyph glyph-name="Iacute" unicode="&#xcd;" horiz-adv-x="552" 
d="M410 0h-267v1382h267v-1382zM575 1575l-442 -109l-43 144l424 153z" />
    <glyph glyph-name="Icircumflex" unicode="&#xce;" horiz-adv-x="552" 
d="M410 0h-267v1382h267v-1382zM616 1595l-61 -131l-281 123l-276 -123l-59 127l337 178z" />
    <glyph glyph-name="Idieresis" unicode="&#xcf;" horiz-adv-x="552" 
d="M410 0h-267v1382h267v-1382zM178 1610q0 -53 -36 -89t-89 -36t-90 37t-37 89t37 89t89 37t89 -37t37 -90zM621 1611q0 -52 -37 -89t-89 -37t-89 36t-37 89t37 90t88 37t89 -37t38 -89z" />
    <glyph glyph-name="Eth" unicode="&#xd0;" horiz-adv-x="1382" 
d="M571 219q205 1 327 119t122 352t-102 356t-330 121q-96 0 -162 -6v-358h246v-201h-246v-375q66 -8 145 -8zM1305 713q0 -349 -206 -535t-556 -186q-88 0 -381 10v600h-158v201h158v577q270 10 446 11q697 0 697 -678z" />
    <glyph glyph-name="Ntilde" unicode="&#xd1;" horiz-adv-x="1431" 
d="M1288 0h-344l-405 698q-72 127 -150 297q12 -178 12 -501v-494h-258v1382h346l385 -659q57 -98 170 -326q-14 195 -14 555v430h258v-1382zM823 1491q-77 0 -153 48t-109 48q-70 0 -119 -88l-129 90q94 168 256 168q78 0 154 -48t108 -48q68 0 119 86l129 -88
q-94 -168 -256 -168z" />
    <glyph glyph-name="Ograve" unicode="&#xd2;" horiz-adv-x="1439" 
d="M1087 689q0 230 -95 353t-261 123t-272 -121q-107 -121 -107 -345t91 -352t257 -128t277 120q110 120 110 350zM1372 716q0 -339 -194 -539t-492 -200q-299 1 -459 185q-159 184 -159 515t194 529t482 199q288 0 458 -175t170 -514zM895 1610l-43 -144l-440 109l59 188z
" />
    <glyph glyph-name="Oacute" unicode="&#xd3;" horiz-adv-x="1439" 
d="M1087 689q0 230 -95 353t-261 123t-272 -121q-107 -121 -107 -345t91 -352t257 -128t277 120q110 120 110 350zM1372 716q0 -339 -194 -539t-492 -200q-299 1 -459 185q-159 184 -159 515t194 529t482 199q288 0 458 -175t170 -514zM1053 1575l-443 -109l-43 144l424 153
z" />
    <glyph glyph-name="Ocircumflex" unicode="&#xd4;" horiz-adv-x="1439" 
d="M1087 689q0 230 -95 353t-261 123t-272 -121q-107 -121 -107 -345t91 -352t257 -128t277 120q110 120 110 350zM1372 716q0 -339 -194 -539t-492 -200q-299 1 -459 185q-159 184 -159 515t194 529t482 199q288 0 458 -175t170 -514zM1085 1595l-63 -131l-281 123
l-276 -123l-59 127l337 178z" />
    <glyph glyph-name="Otilde" unicode="&#xd5;" horiz-adv-x="1439" 
d="M1087 689q0 230 -95 353t-261 123t-272 -121q-107 -121 -107 -345t91 -352t257 -128t277 120q110 120 110 350zM1372 716q0 -339 -194 -539t-492 -200q-299 1 -459 185q-159 184 -159 515t194 529t482 199q288 0 458 -175t170 -514zM838 1491q-78 0 -153 48t-107 48
q-70 0 -119 -88l-131 90q94 168 258 168q78 0 154 -48t108 -48q66 0 119 86l129 -88q-94 -168 -258 -168z" />
    <glyph glyph-name="Odieresis" unicode="&#xd6;" horiz-adv-x="1439" 
d="M1087 689q0 230 -95 353t-261 123t-272 -121q-107 -121 -107 -345t91 -352t257 -128t277 120q110 120 110 350zM1372 716q0 -339 -194 -539t-492 -200q-299 1 -459 185q-159 184 -159 515t194 529t482 199q288 0 458 -175t170 -514zM633 1610q0 -53 -36 -89t-89 -36
t-90 37t-37 89t37 89t89 37t89 -37t37 -90zM1075 1611q0 -52 -37 -89t-89 -37t-89 36t-37 89t37 90t88 37t89 -37t38 -89z" />
    <glyph glyph-name="multiply" unicode="&#xd7;" 
d="M1030 301l-160 -160l-315 316l-315 -316l-144 144l316 315l-316 315l160 160l315 -315l316 315l143 -143l-315 -316z" />
    <glyph glyph-name="Oslash" unicode="&#xd8;" horiz-adv-x="1439" 
d="M342 700q0 -279 125 -385l305 848q-49 8 -117 -2q-137 -20 -225 -140t-88 -321zM1098 688q0 287 -142 395l-309 -862q47 -12 101 -8q152 12 251 134t99 341zM1372 707q0 -334 -191 -532t-487 -198q-76 0 -123 11l-71 -203l-195 61l70 199q-307 156 -307 631
q0 332 192 530t481 199q59 0 107 -8l67 192l195 -61l-66 -185q328 -151 328 -636z" />
    <glyph glyph-name="Ugrave" unicode="&#xd9;" horiz-adv-x="1394" 
d="M1251 537q0 -279 -147 -419t-444 -140t-413 153q-104 137 -104 348v903h267v-886q0 -142 62 -220t221 -78t227 74t67 248v862h264v-845zM846 1610l-43 -144l-443 109l62 188z" />
    <glyph glyph-name="Uacute" unicode="&#xda;" horiz-adv-x="1394" 
d="M1251 537q0 -279 -147 -419t-444 -140t-413 153q-104 137 -104 348v903h267v-886q0 -142 62 -220t221 -78t227 74t67 248v862h264v-845zM1034 1575l-440 -109l-43 144l424 153z" />
    <glyph glyph-name="Ucircumflex" unicode="&#xdb;" horiz-adv-x="1394" 
d="M1251 537q0 -279 -147 -419t-444 -140t-413 153q-104 137 -104 348v903h267v-886q0 -142 62 -220t221 -78t227 74t67 248v862h264v-845zM1038 1595l-63 -131l-279 123l-276 -123l-60 127l338 178z" />
    <glyph glyph-name="Udieresis" unicode="&#xdc;" horiz-adv-x="1394" 
d="M1251 537q0 -279 -147 -419t-444 -140t-413 153q-104 137 -104 348v903h267v-886q0 -142 62 -220t221 -78t227 74t67 248v862h264v-845zM590 1610q0 -53 -37 -89t-89 -36t-89 37t-37 89t38 89t89 37t88 -37t37 -90zM1032 1611q0 -52 -37 -89t-90 -37t-89 36t-36 89t37 90
t89 37t89 -37t37 -89z" />
    <glyph glyph-name="Yacute" unicode="&#xdd;" horiz-adv-x="1148" 
d="M705 0h-267v487l-432 895h291l182 -397q51 -115 94 -229h5q29 80 110 256l174 370h283l-440 -893v-489zM909 1575l-442 -109l-43 144l424 153z" />
    <glyph glyph-name="Thorn" unicode="&#xde;" horiz-adv-x="1114" 
d="M528 471q127 -1 203 67t76 187t-70 185t-217 67q-33 0 -110 -8v-490q47 -8 118 -8zM559 1194q248 0 385 -114t137 -331q0 -218 -155 -357q-156 -138 -414 -138q-70 0 -102 4v-258h-267v1382h267v-192q90 4 149 4z" />
    <glyph glyph-name="germandbls" unicode="&#xdf;" horiz-adv-x="1243" 
d="M1180 322q0 -156 -117 -250t-307 -95q-137 0 -217 29l14 215q92 -41 182 -41t132 33t42 82q0 81 -129 152q-53 30 -106 66q-53 37 -91 101t-38 141q0 135 81 214q34 33 68 63q83 74 82 156q0 57 -41 88t-112 31q-219 0 -220 -283v-1024h-262v1012q1 256 137 377t340 121
t318 -82q113 -81 113 -219t-84 -217q-35 -32 -70 -58q-84 -64 -84 -140t130 -151q55 -31 109 -69t92 -102t38 -150z" />
    <glyph glyph-name="agrave" unicode="&#xe0;" horiz-adv-x="1073" 
d="M721 1288l-98 -141l-371 221l121 176zM666 426v31q-338 0 -338 -158q0 -51 32 -85t89 -34q93 0 155 75t62 171zM686 0q0 106 10 172l-2 2q-37 -88 -125 -141q-87 -53 -211 -53t-202 82t-78 208q0 176 156 267q157 90 432 90v51q0 82 -46 122t-171 40t-269 -72l-47 207
q172 65 390 65q217 0 311 -87t94 -257v-434q0 -135 6 -262h-248z" />
    <glyph glyph-name="aacute" unicode="&#xe1;" horiz-adv-x="1073" 
d="M827 1368l-370 -221l-97 141l347 256zM666 426v31q-338 0 -338 -158q0 -51 32 -85t89 -34q93 0 155 75t62 171zM686 0q0 106 10 172l-2 2q-37 -88 -125 -141q-87 -53 -211 -53t-202 82t-78 208q0 176 156 267q157 90 432 90v51q0 82 -46 122t-171 40t-269 -72l-47 207
q172 65 390 65q217 0 311 -87t94 -257v-434q0 -135 6 -262h-248z" />
    <glyph glyph-name="acircumflex" unicode="&#xe2;" horiz-adv-x="1073" 
d="M848 1268l-103 -121l-213 166l-210 -166l-101 119l314 278zM666 426v31q-338 0 -338 -158q0 -51 32 -85t89 -34q93 0 155 75t62 171zM686 0q0 106 10 172l-2 2q-37 -88 -125 -141q-87 -53 -211 -53t-202 82t-78 208q0 176 156 267q157 90 432 90v51q0 82 -46 122t-171 40
t-269 -72l-47 207q172 65 390 65q217 0 311 -87t94 -257v-434q0 -135 6 -262h-248z" />
    <glyph glyph-name="atilde" unicode="&#xe3;" horiz-adv-x="1073" 
d="M633 1188q-76 0 -148 51t-104 51q-63 0 -113 -92l-125 96q90 182 250 183q74 1 146 -51t104 -52q66 0 115 92l125 -96q-92 -182 -250 -182zM666 426v31q-338 0 -338 -158q0 -51 32 -85t89 -34q93 0 155 75t62 171zM686 0q0 106 10 172l-2 2q-37 -88 -125 -141
q-87 -53 -211 -53t-202 82t-78 208q0 176 156 267q157 90 432 90v51q0 82 -46 122t-171 40t-269 -72l-47 207q172 65 390 65q217 0 311 -87t94 -257v-434q0 -135 6 -262h-248z" />
    <glyph glyph-name="adieresis" unicode="&#xe4;" horiz-adv-x="1073" 
d="M467 1328q0 -58 -41 -100t-100 -42t-101 42q-41 42 -41 100t41 99t101 41t100 -41q41 -41 41 -99zM739 1468q59 0 101 -41t41 -99q0 -58 -41 -100q-40 -42 -100 -42t-101 42t-41 100t41 99t100 41zM666 426v31q-338 0 -338 -158q0 -51 32 -85t89 -34q93 0 155 75t62 171z
M686 0q0 106 10 172l-2 2q-37 -88 -125 -141q-87 -53 -211 -53t-202 82t-78 208q0 176 156 267q157 90 432 90v51q0 82 -46 122t-171 40t-269 -72l-47 207q172 65 390 65q217 0 311 -87t94 -257v-434q0 -135 6 -262h-248z" />
    <glyph glyph-name="aring" unicode="&#xe5;" horiz-adv-x="1073" 
d="M639 1366q0 45 -31 77t-76 32q-44 0 -76 -32t-32 -77t32 -77t76 -32t76 32q31 32 31 77zM793 1367q0 -105 -76 -178t-186 -73q-111 0 -185 71t-74 178t76 178t186 71t184 -71q75 -71 75 -176zM666 426v31q-338 0 -338 -158q0 -51 32 -85t89 -34q93 0 155 75t62 171z
M686 0q0 106 10 172l-2 2q-37 -88 -125 -141q-87 -53 -211 -53t-202 82t-78 208q0 176 156 267q157 90 432 90v51q0 82 -46 122t-171 40t-269 -72l-47 207q172 65 390 65q217 0 311 -87t94 -257v-434q0 -135 6 -262h-248z" />
    <glyph glyph-name="ae" unicode="&#xe6;" horiz-adv-x="1638" 
d="M666 426v31q-338 0 -338 -158q0 -51 32 -85t89 -34q93 0 155 75t62 171zM1125 848q-83 0 -136 -55t-63 -152h374q2 95 -45 151t-130 56zM1561 586q0 -61 -9 -121h-630q-2 -281 280 -281q154 0 295 62l29 -199q-166 -67 -348 -67q-343 1 -430 206h-3q-49 -92 -145 -149
t-230 -57t-213 80t-79 210q0 176 156 267q157 90 432 90v51q0 82 -46 122t-171 40t-269 -72l-47 207q172 65 389 65t309 -127h3q106 127 309 127t311 -126t107 -328z" />
    <glyph glyph-name="ccedilla" unicode="&#xe7;" horiz-adv-x="870" 
d="M559 -82q147 -203 -41 -397h-196q78 92 84 163t-64 166zM528 -18q-219 0 -339 120q-119 120 -119 372q0 251 132 407t386 155q123 0 223 -35l-41 -225q-96 39 -200 39t-166 -84q-60 -84 -60 -229q0 -295 238 -295q106 0 198 41l35 -219q-123 -47 -287 -47z" />
    <glyph glyph-name="egrave" unicode="&#xe8;" horiz-adv-x="1052" 
d="M735 1288l-98 -141l-371 221l121 176zM540 848q-82 0 -136 -55t-64 -152h375q2 95 -45 151t-130 56zM975 586q0 -61 -8 -121h-631q-2 -281 280 -281q150 0 295 62l29 -199q-166 -68 -369 -67q-502 0 -501 520q0 240 127 390t345 150t326 -126t107 -328z" />
    <glyph glyph-name="eacute" unicode="&#xe9;" horiz-adv-x="1052" 
d="M840 1368l-371 -221l-96 141l346 256zM540 848q-82 0 -136 -55t-64 -152h375q2 95 -45 151t-130 56zM975 586q0 -61 -8 -121h-631q-2 -281 280 -281q150 0 295 62l29 -199q-166 -68 -369 -67q-502 0 -501 520q0 240 127 390t345 150t326 -126t107 -328z" />
    <glyph glyph-name="ecircumflex" unicode="&#xea;" horiz-adv-x="1052" 
d="M850 1268l-102 -121l-213 166l-211 -166l-101 119l314 278zM540 848q-82 0 -136 -55t-64 -152h375q2 95 -45 151t-130 56zM975 586q0 -61 -8 -121h-631q-2 -281 280 -281q150 0 295 62l29 -199q-166 -68 -369 -67q-502 0 -501 520q0 240 127 390t345 150t326 -126
t107 -328z" />
    <glyph glyph-name="edieresis" unicode="&#xeb;" horiz-adv-x="1052" 
d="M481 1328q0 -58 -42 -100t-99 -42t-99 42t-42 100t41 99t100 41t100 -41t41 -99zM895 1328q0 -58 -42 -100t-99 -42t-100 42q-42 42 -42 100t41 99t101 41t100 -41q41 -41 41 -99zM540 848q-82 0 -136 -55t-64 -152h375q2 95 -45 151t-130 56zM975 586q0 -61 -8 -121
h-631q-2 -281 280 -281q150 0 295 62l29 -199q-166 -68 -369 -67q-502 0 -501 520q0 240 127 390t345 150t326 -126t107 -328z" />
    <glyph glyph-name="igrave" unicode="&#xec;" horiz-adv-x="544" 
d="M504 1288l-98 -141l-371 221l121 176zM403 0h-262v1018h262v-1018z" />
    <glyph glyph-name="iacute" unicode="&#xed;" horiz-adv-x="544" 
d="M508 1368l-371 -221l-96 141l346 256zM403 0h-262v1018h262v-1018z" />
    <glyph glyph-name="icircumflex" unicode="&#xee;" horiz-adv-x="544" 
d="M584 1268l-103 -121l-213 166l-211 -166l-100 119l313 278zM403 0h-262v1018h262v-1018z" />
    <glyph glyph-name="idieresis" unicode="&#xef;" horiz-adv-x="544" 
d="M209 1328q0 -58 -41 -100t-100 -42t-101 42q-41 42 -41 100t41 99t101 41t100 -41q41 -41 41 -99zM481 1468q59 0 101 -41t41 -99q0 -58 -41 -100q-40 -42 -100 -42t-101 42t-41 100t41 99t100 41zM403 0h-262v1018h262v-1018z" />
    <glyph glyph-name="eth" unicode="&#xf0;" horiz-adv-x="1136" 
d="M566 203q104 -1 164 81q58 82 58 232q0 300 -223 301q-96 0 -161 -78q-64 -77 -64 -227t61 -230t165 -79zM1061 569q0 -287 -143 -439q-144 -152 -366 -150q-222 0 -353 129t-131 377t139 398t354 150q115 0 162 -63q-10 20 -54 91t-106 134l-188 -84l-107 123l172 76
q-59 51 -155 116l256 109q74 -55 141 -123l182 80l105 -123l-176 -76q268 -330 268 -725z" />
    <glyph glyph-name="ntilde" unicode="&#xf1;" horiz-adv-x="1169" 
d="M711 1188q-83 0 -187 77q-35 26 -65 25q-63 0 -113 -92l-125 96q90 182 250 183q73 1 145 -51t105 -52q66 0 115 92l125 -96q-92 -182 -250 -182zM1026 0h-260v651q0 84 -28 126t-97 42q-98 0 -168 -96t-70 -231v-492h-262v1018h248q0 -109 -14 -182h2q47 92 136 147
t210 55q303 0 303 -323v-715z" />
    <glyph glyph-name="ograve" unicode="&#xf2;" horiz-adv-x="1132" 
d="M766 1288l-98 -141l-371 221l121 176zM793 514q0 303 -224 303q-95 0 -163 -76t-68 -223q0 -315 227 -315q100 1 164 81t64 230zM1063 536q0 -248 -145 -402q-144 -154 -372 -154t-353 124t-125 376t144 406t372 152q228 0 353 -127q126 -127 126 -375z" />
    <glyph glyph-name="oacute" unicode="&#xf3;" horiz-adv-x="1132" 
d="M868 1368l-370 -221l-97 141l347 256zM793 514q0 303 -224 303q-95 0 -163 -76t-68 -223q0 -315 227 -315q100 1 164 81t64 230zM1063 536q0 -248 -145 -402q-144 -154 -372 -154t-353 124t-125 376t144 406t372 152q228 0 353 -127q126 -127 126 -375z" />
    <glyph glyph-name="ocircumflex" unicode="&#xf4;" horiz-adv-x="1132" 
d="M887 1268l-103 -121l-213 166l-211 -166l-100 119l313 278zM793 514q0 303 -224 303q-95 0 -163 -76t-68 -223q0 -315 227 -315q100 1 164 81t64 230zM1063 536q0 -248 -145 -402q-144 -154 -372 -154t-353 124t-125 376t144 406t372 152q228 0 353 -127
q126 -127 126 -375z" />
    <glyph glyph-name="otilde" unicode="&#xf5;" horiz-adv-x="1132" 
d="M684 1188q-74 0 -148 51t-104 51q-63 0 -113 -92l-124 96q92 182 249 183q58 0 104 -26q46 -25 81 -51t65 -26q66 0 115 92l125 -96q-90 -182 -250 -182zM793 514q0 303 -224 303q-95 0 -163 -76t-68 -223q0 -315 227 -315q100 1 164 81t64 230zM1063 536
q0 -248 -145 -402q-144 -154 -372 -154t-353 124t-125 376t144 406t372 152q228 0 353 -127q126 -127 126 -375z" />
    <glyph glyph-name="odieresis" unicode="&#xf6;" horiz-adv-x="1132" 
d="M510 1328q0 -58 -42 -100t-99 -42t-100 42q-42 42 -42 100t41 99q40 41 100 41t101 -41t41 -99zM782 1468q58 0 100 -41t42 -99t-42 -100t-100 -42t-99 42q-42 42 -42 100t41 99t100 41zM793 514q0 303 -224 303q-95 0 -163 -76t-68 -223q0 -315 227 -315q100 1 164 81
t64 230zM1063 536q0 -248 -145 -402q-144 -154 -372 -154t-353 124t-125 376t144 406t372 152q228 0 353 -127q126 -127 126 -375z" />
    <glyph glyph-name="divide" unicode="&#xf7;" 
d="M721 199q0 -66 -47 -113t-113 -47q-67 0 -113 47t-47 113q-1 67 47 113t114 46t112 -46q47 -46 47 -113zM1047 500h-967v219h967v-219zM721 1020q0 -66 -47 -113t-113 -47q-67 0 -113 47t-47 113t47 113t114 47t112 -47q47 -47 47 -113z" />
    <glyph glyph-name="oslash" unicode="&#xf8;" horiz-adv-x="1132" 
d="M590 825q-137 9 -214 -86q-60 -75 -60 -231t65 -227zM817 521q0 159 -86 241l-215 -561q146 -35 238 81q64 80 63 239zM1063 528q-1 -242 -147 -396t-371 -152q-59 0 -109 12l-80 -211l-153 47l82 207q-217 119 -217 457q0 244 144 396t376 150q25 0 82 -4l73 191
l154 -47l-74 -187q240 -117 240 -463z" />
    <glyph glyph-name="ugrave" unicode="&#xf9;" horiz-adv-x="1167" 
d="M754 1288l-99 -141l-370 221l121 176zM1026 0h-246q0 119 13 182h-2q-104 -203 -347 -202q-303 0 -303 323v715h260v-651q0 -84 29 -126t98 -42q98 0 167 96t69 231v492h262v-1018z" />
    <glyph glyph-name="uacute" unicode="&#xfa;" horiz-adv-x="1167" 
d="M903 1368l-371 -221l-96 141l346 256zM1026 0h-246q0 119 13 182h-2q-104 -203 -347 -202q-303 0 -303 323v715h260v-651q0 -84 29 -126t98 -42q98 0 167 96t69 231v492h262v-1018z" />
    <glyph glyph-name="ucircumflex" unicode="&#xfb;" horiz-adv-x="1167" 
d="M891 1268l-103 -121l-213 166l-210 -166l-101 119l314 278zM1026 0h-246q0 119 13 182h-2q-104 -203 -347 -202q-303 0 -303 323v715h260v-651q0 -84 29 -126t98 -42q98 0 167 96t69 231v492h262v-1018z" />
    <glyph glyph-name="udieresis" unicode="&#xfc;" horiz-adv-x="1167" 
d="M506 1328q0 -58 -42 -100t-99 -42t-100 42q-42 42 -42 100t41 99q40 41 100 41t101 -41t41 -99zM778 1468q58 0 100 -41t42 -99t-42 -100t-100 -42t-99 42q-42 42 -42 100t41 99t100 41zM1026 0h-246q0 119 13 182h-2q-104 -203 -347 -202q-303 0 -303 323v715h260v-651
q0 -84 29 -126t98 -42q98 0 167 96t69 231v492h262v-1018z" />
    <glyph glyph-name="yacute" unicode="&#xfd;" horiz-adv-x="1028" 
d="M862 1368l-370 -221l-97 141l346 256zM106 -510q-76 0 -143 14l31 226q66 -20 129 -21q162 0 233 201l31 90l-375 1018h291l137 -389q37 -109 80 -281h2q33 137 99 324l120 346h281l-404 -1075q-96 -256 -212 -355q-117 -98 -300 -98z" />
    <glyph glyph-name="thorn" unicode="&#xfe;" horiz-adv-x="1144" 
d="M797 535q0 289 -174 288q-99 0 -159 -98t-61 -236v-282q61 -18 138 -19q256 1 256 347zM698 1038q180 0 276 -124t97 -372q0 -248 -138 -403q-138 -154 -398 -153q-74 0 -132 8v-488h-262v1989h262v-418q0 -131 -10 -209h4q86 170 301 170z" />
    <glyph glyph-name="ydieresis" unicode="&#xff;" horiz-adv-x="1028" 
d="M309 1468q59 0 101 -41t41 -99q0 -58 -41 -100q-40 -42 -100 -42t-101 42t-41 100t41 99t100 41zM864 1328q0 -58 -41 -100t-100 -42t-100 42t-41 100t41 99t100 41t100 -41t41 -99zM106 -510q-76 0 -143 14l31 226q66 -20 129 -21q162 0 233 201l31 90l-375 1018h291
l137 -389q37 -109 80 -281h2q33 137 99 324l120 346h281l-404 -1075q-96 -256 -212 -355q-117 -98 -300 -98z" />
    <glyph glyph-name="dotlessi" unicode="&#x131;" horiz-adv-x="544" 
d="M403 0h-262v1018h262v-1018z" />
    <glyph glyph-name="Lslash" unicode="&#x141;" horiz-adv-x="897" 
d="M881 0h-715v537l-148 -48l-36 199l184 57v637h266v-563l209 66l35 -201l-244 -76v-375h449v-233z" />
    <glyph glyph-name="lslash" unicode="&#x142;" horiz-adv-x="616" 
d="M436 0h-260v549l-160 -51l-22 198l182 58v741h260v-670l162 52l20 -201l-182 -58v-618z" />
    <glyph glyph-name="OE" unicode="&#x152;" horiz-adv-x="1761" 
d="M715 219q90 0 182 33v887q-90 27 -176 26q-156 0 -262 -121q-107 -121 -107 -345t91 -352t272 -128zM1647 0h-727q-109 -23 -224 -23q-309 1 -469 185q-159 184 -159 514t192 530t473 199q113 0 215 -23h699v-223h-484v-340h459v-217h-459v-375h484v-227z" />
    <glyph glyph-name="oe" unicode="&#x153;" horiz-adv-x="1761" 
d="M793 514q0 303 -224 303q-95 0 -163 -76t-68 -223q0 -315 227 -315q100 1 164 81t64 230zM1248 848q-83 0 -137 -56t-64 -151h374q2 99 -44 153t-129 54zM1681 586q0 -61 -8 -121h-629q-2 -281 279 -281q154 0 295 62l29 -199q-166 -68 -369 -67q-258 0 -379 165
q-125 -165 -353 -165t-353 124t-125 378q0 252 144 404t374 152t342 -149q122 151 330 151t316 -126t107 -328z" />
    <glyph glyph-name="Scaron" unicode="&#x160;" horiz-adv-x="1030" 
d="M956 424q0 -195 -148 -321t-386 -126q-180 0 -320 37l29 256q145 -59 274 -59q259 0 259 180q0 72 -60 118t-146 77q-85 30 -170 70t-146 123q-60 83 -60 210q0 188 138 302t384 114q123 0 250 -27l-25 -233q-121 39 -235 39t-172 -45q-57 -45 -57 -117t61 -118t147 -78
t173 -74q86 -42 148 -124q62 -83 62 -204zM864 1642l-338 -178l-340 176l62 129l280 -120l277 120z" />
    <glyph glyph-name="scaron" unicode="&#x161;" horiz-adv-x="854" 
d="M758 1423l-316 -276l-313 274l102 123l213 -168l211 168zM774 317q0 -153 -123 -245t-325 -92q-133 0 -228 26l19 219q95 -41 193 -41t143 30t45 79t-43 79t-103 49t-122 47q-60 28 -103 89t-43 158q0 143 110 234t320 91q90 0 186 -20l-12 -205q-90 27 -184 27
q-150 0 -150 -105q0 -47 43 -77t105 -50t124 -49t105 -91t43 -153z" />
    <glyph glyph-name="Ydieresis" unicode="&#x178;" horiz-adv-x="1148" 
d="M705 0h-267v487l-432 895h291l182 -397q51 -115 94 -229h5q29 80 110 256l174 370h283l-440 -893v-489zM471 1610q0 -53 -37 -89t-89 -36t-89 37t-37 89t38 89t89 37t88 -37t37 -90zM787 1737q52 0 89 -37t37 -89q-1 -52 -37 -89t-90 -37t-89 36q-36 36 -35 89
q0 53 36 90q37 37 89 37z" />
    <glyph glyph-name="Zcaron" unicode="&#x17d;" horiz-adv-x="1099" 
d="M1010 0h-918v205l498 811q39 63 90 131q-98 -4 -252 -4h-319v239h892v-213l-526 -831q-43 -70 -63 -96q35 4 299 4h299v-246zM920 1642l-338 -178l-340 176l61 129l281 -120l276 120z" />
    <glyph glyph-name="zcaron" unicode="&#x17e;" horiz-adv-x="921" 
d="M778 1423l-315 -276l-313 274l102 123l213 -168l211 168zM825 0h-733v186l410 602q-78 -4 -217 -4h-181v234h713v-187l-401 -593q43 2 231 2h178v-240z" />
    <glyph glyph-name="florin" unicode="&#x192;" 
d="M857 1225q-87 0 -129 -49t-54 -166l-23 -246h289v-203h-309l-41 -442q-41 -449 -465 -449q-92 0 -186 23l30 221q106 -29 183 -29t121 50t55 163l43 463h-234v203h252l23 227q25 231 139 340q115 109 326 109q80 0 184 -23l-31 -223q-86 31 -173 31z" />
    <glyph glyph-name="circumflex" unicode="&#x2c6;" horiz-adv-x="872" 
d="M748 1268l-103 -121l-213 166l-211 -166l-100 119l313 278z" />
    <glyph glyph-name="caron" unicode="&#x2c7;" horiz-adv-x="872" 
d="M745 1423l-315 -276l-313 274l102 123l213 -168l211 168z" />
    <glyph glyph-name="breve" unicode="&#x2d8;" horiz-adv-x="763" 
d="M659 1483q0 -135 -70 -225q-71 -89 -211 -89q-140 1 -209 91t-69 223h174q0 -53 27 -87t78 -34q106 0 106 121h174z" />
    <glyph glyph-name="dotaccent" unicode="&#x2d9;" horiz-adv-x="587" 
d="M285 1487q68 0 116 -46t48 -113q-1 -67 -49 -113t-116 -46t-115 46q-48 46 -48 112t48 113t116 47z" />
    <glyph glyph-name="ring" unicode="&#x2da;" horiz-adv-x="747" 
d="M481 1321q0 45 -30 77q-31 32 -76 32t-77 -32t-32 -77t32 -77t77 -32t76 32q30 32 30 77zM376 1569q110 0 184 -71t75 -176q0 -105 -76 -178q-75 -73 -185 -73t-185 71t-75 178t76 178t186 71z" />
    <glyph glyph-name="ogonek" unicode="&#x2db;" horiz-adv-x="649" 
d="M276 -459q-115 0 -170 53q-55 52 -55 130t42 150t118 126h274q-180 -90 -180 -203q-1 -57 59 -57t113 59l101 -121q-121 -137 -302 -137z" />
    <glyph glyph-name="tilde" unicode="&#x2dc;" horiz-adv-x="956" 
d="M598 1188q-74 0 -146 51t-106 51q-63 0 -113 -92l-124 96q92 182 249 183q58 0 104 -26q46 -25 81 -51t65 -26q66 0 115 92l125 -96q-90 -182 -250 -182z" />
    <glyph glyph-name="hungarumlaut" unicode="&#x2dd;" horiz-adv-x="1032" 
d="M543 1442l-293 -295l-123 104l264 318zM956 1415l-319 -268l-115 104l293 301z" />
    <glyph glyph-name="Delta" unicode="&#x394;" horiz-adv-x="1540" 
d="M1100 240l-342 858l-338 -858h680zM1487 0h-1434l586 1434h260z" />
    <glyph glyph-name="Omega" unicode="&#x3a9;" horiz-adv-x="1533" 
d="M1405 0h-526v186q256 164 256 531q1 209 -97 343t-269 134t-276 -131t-105 -331t62 -326q62 -127 199 -218v-188h-528v197h262q-252 172 -252 524q0 297 179 491q180 194 464 193q284 0 454 -175t171 -489q0 -174 -72 -319t-192 -225h270v-197z" />
    <glyph glyph-name="mu" unicode="&#x3bc;" horiz-adv-x="1298" 
d="M1001 -20q-102 0 -144 55t-40 137h-2q-37 -86 -112 -136t-167 -50t-145 41l39 -521h-274v1512h260v-643q0 -88 30 -132t116 -44q85 0 151 89t65 222v508h262v-686q0 -92 12 -122t49 -30q38 0 77 62l94 -115q-90 -147 -271 -147z" />
    <glyph glyph-name="pi" unicode="&#x3c0;" horiz-adv-x="1370" 
d="M1050 -23q-120 0 -176 66q-55 66 -55 207v555h-295v-805h-243v805h-201v213h1182v-213h-199v-408q0 -147 19 -188q18 -41 76 -41t106 14l16 -182q-110 -23 -230 -23z" />
    <glyph glyph-name="endash" unicode="&#x2013;" 
d="M1126 496h-1126v227h1126v-227z" />
    <glyph glyph-name="emdash" unicode="&#x2014;" horiz-adv-x="2048" 
d="M1821 496h-1594v227h1594v-227z" />
    <glyph glyph-name="quoteleft" unicode="&#x2018;" horiz-adv-x="546" 
d="M268 889q-102 0 -149 92t10 252t236 315l106 -96q-184 -197 -84 -315q61 -68 23 -158q-40 -90 -142 -90z" />
    <glyph glyph-name="quoteright" unicode="&#x2019;" horiz-adv-x="546" 
d="M279 1530q104 0 147 -103q59 -141 -53 -331q-68 -117 -193 -226l-106 97q189 206 82 315q-59 68 -21 158q40 90 144 90z" />
    <glyph glyph-name="quotesinglbase" unicode="&#x201a;" horiz-adv-x="546" 
d="M279 305q104 0 147 -102q59 -141 -53 -332q-68 -117 -193 -225l-106 96q188 205 82 313q-59 70 -21 160q40 90 144 90z" />
    <glyph glyph-name="quotedblleft" unicode="&#x201c;" horiz-adv-x="993" 
d="M268 889q-102 0 -149 92t10 252t236 315l106 -96q-184 -197 -84 -315q61 -68 23 -158q-40 -90 -142 -90zM716 889q-101 0 -150 92q-48 92 9 252t236 315l109 -96q-184 -197 -84 -315q59 -68 20 -158t-140 -90z" />
    <glyph glyph-name="quotedblright" unicode="&#x201d;" horiz-adv-x="993" 
d="M279 1530q104 0 147 -103q59 -141 -53 -331q-68 -117 -193 -226l-106 97q189 206 82 315q-59 68 -21 158q40 90 144 90zM724 1530q101 0 149 -92t-9 -252t-235 -316l-109 97q184 197 84 315q-59 68 -20 158t140 90z" />
    <glyph glyph-name="quotedblbase" unicode="&#x201e;" horiz-adv-x="993" 
d="M279 305q104 0 147 -102q59 -141 -53 -332q-68 -117 -193 -225l-106 96q188 205 82 313q-59 70 -21 160q40 90 144 90zM724 305q101 0 149 -92t-9 -252t-235 -315l-109 96q188 205 84 313q-59 70 -20 160t140 90z" />
    <glyph glyph-name="dagger" unicode="&#x2020;" horiz-adv-x="935" 
d="M852 1092h-277l43 -181l-47 -522h-204l-50 522l43 181h-274v202h274l-43 279h301l-43 -279h277v-202z" />
    <glyph glyph-name="daggerdbl" unicode="&#x2021;" horiz-adv-x="935" 
d="M852 588h-274l43 -250h-306l43 250h-272v200h272l-41 166l41 168h-272v201h272l-41 250h301l-40 -250h274v-201h-274l40 -168l-40 -166h274v-200z" />
    <glyph glyph-name="bullet" unicode="&#x2022;" horiz-adv-x="866" 
d="M737 608q0 -125 -90 -214t-215 -89t-214 89t-89 214t89 214t214 89t215 -89t90 -214z" />
    <glyph glyph-name="ellipsis" unicode="&#x2026;" horiz-adv-x="1480" 
d="M418 137q0 -67 -48 -113t-114 -46t-113 46q-47 48 -47 114t47 112q47 47 113 47t114 -47t48 -113zM895 137q0 -67 -47 -113t-113 -46q-67 0 -113 46q-46 48 -46 114t46 112q48 47 114 47t112 -47q47 -47 47 -113zM1372 137q0 -67 -47 -113t-113 -46t-112 46
q-46 48 -47 114q0 66 47 112q46 47 112 47t113 -47t47 -113z" />
    <glyph glyph-name="perthousand" unicode="&#x2030;" horiz-adv-x="2154" 
d="M388 1354q128 0 207 -74t79 -230q0 -155 -89 -247t-219 -92t-207 81q-77 82 -77 232t89 240t217 90zM485 1038q0 152 -102 152q-51 0 -81 -42t-30 -116q0 -158 105 -158q49 0 79 42q29 42 29 122zM1341 1249l-1062 -1290l-156 121l1063 1290zM1386 314q0 -156 -89 -246
t-219 -90t-207 79q-77 80 -77 231q0 152 89 242q88 90 217 90q130 0 208 -75q78 -76 78 -231zM1196 301q0 156 -102 156q-49 0 -79 -42t-30 -116q0 -158 105 -158q46 0 76 42t30 118zM2058 314q0 -156 -89 -246t-219 -90t-207 79q-77 80 -77 231q0 152 88 242t216 90
t208 -75q80 -76 80 -231zM1868 301q0 156 -103 156q-49 0 -79 -42t-29 -116q0 -158 104 -158q47 0 77 42t30 118z" />
    <glyph glyph-name="guilsinglleft" unicode="&#x2039;" horiz-adv-x="638" 
d="M522 303l-207 -98l-231 393l235 399l199 -96l-182 -301z" />
    <glyph glyph-name="guilsinglright" unicode="&#x203a;" horiz-adv-x="638" 
d="M557 604l-238 -399l-198 96l184 301l-186 297l207 98z" />
    <glyph glyph-name="fraction" unicode="&#x2044;" horiz-adv-x="890" 
d="M1061 1300l-1008 -1370l-188 136l1007 1370z" />
    <glyph glyph-name="uni20AC" unicode="&#x20ac;" 
d="M23 743v162h178q47 207 187 328t382 121q152 0 285 -51l-62 -207q-109 51 -243 51q-215 0 -279 -242h338v-162h-369v-151h369v-162h-344q27 -125 99 -183q72 -59 195 -59q122 0 249 54l59 -199q-155 -66 -363 -66q-441 0 -516 453h-165v162h151q-2 18 -2 55l2 96h-151z
" />
    <glyph glyph-name="trademark" unicode="&#x2122;" horiz-adv-x="1411" 
d="M518 1225h-133v-418h-186v418h-140v157h459v-157zM1339 807h-194l-37 248l-10 96l-19 -88l-67 -256h-174l-68 262l-16 82l-4 -74l-39 -270h-176l92 575h223l70 -252l16 -83l14 79l70 256h223z" />
    <glyph glyph-name="partialdiff" unicode="&#x2202;" horiz-adv-x="1298" 
d="M600 211q102 1 175 79t73 186t-57 166t-163 58t-175 -74q-68 -74 -68 -185q0 -112 56 -171q57 -59 159 -59zM1171 817q0 -426 -210 -657q-158 -174 -402 -174q-209 0 -321 116t-111 326q0 209 140 351t368 143q182 0 266 -131q-14 129 -14 135q-23 176 -135 271
q-113 95 -281 93l37 219q301 -3 482 -189t181 -503z" />
    <glyph glyph-name="product" unicode="&#x220f;" horiz-adv-x="1605" 
d="M1520 1274h-197v-1768h-244v1768h-549v-1768h-247v1768h-199v221h1436v-221z" />
    <glyph glyph-name="summation" unicode="&#x2211;" horiz-adv-x="1243" 
d="M1143 -494h-1069v203l596 811l-559 770v205h1001v-221h-680l541 -746l-590 -792h760v-230z" />
    <glyph glyph-name="minus" unicode="&#x2212;" 
d="M1047 496h-967v227h967v-227z" />
    <glyph glyph-name="radical" unicode="&#x221a;" horiz-adv-x="1261" 
d="M6 821v197h393l164 -529q39 -119 55 -198h3q18 92 43 188l288 1073h287l-475 -1552h-303l-277 821h-178z" />
    <glyph glyph-name="infinity" unicode="&#x221e;" horiz-adv-x="2015" 
d="M511 762q-87 0 -128 -43t-41 -108t43 -107t117 -41q106 0 301 143q-205 156 -292 156zM1675 614q0 66 -43 107t-116 41q-106 0 -306 -146q207 -154 306 -153q76 1 118 43t41 108zM1512 989q198 0 306 -102t107 -266q0 -164 -113 -275q-112 -110 -314 -110t-499 219
q-297 -219 -501 -219t-305 103q-103 103 -103 267t115 274t297 109q215 0 512 -223q300 223 498 223z" />
    <glyph glyph-name="integral" unicode="&#x222b;" horiz-adv-x="706" 
d="M556 1286q-60 0 -86 -53t-26 -209t14 -468t13 -523q0 -289 -83 -418t-259 -129q-63 0 -115 12v228q47 -14 88 -15q70 1 99 55t29 208t-14 463q-13 310 -13 528q0 289 89 417t261 129q49 0 106 -14v-225q-43 14 -103 14z" />
    <glyph glyph-name="approxequal" unicode="&#x2248;" 
d="M762 233q-100 -1 -216 59t-196 60t-186 -88l-86 176q139 131 280 131q98 0 216 -60t209 -60t184 79l84 -174q-137 -123 -289 -123zM762 637q-90 0 -206 59q-116 60 -204 60t-192 -86l-82 174q143 131 295 131q98 -1 217 -61t176 -60q98 0 195 90l88 -176
q-131 -131 -287 -131z" />
    <glyph glyph-name="notequal" unicode="&#x2260;" 
d="M1032 307h-471l-98 -248h-234l99 248h-234v211h316l71 180h-387v211h469l99 248h235l-98 -248h233v-211h-317l-72 -180h389v-211z" />
    <glyph glyph-name="lessequal" unicode="&#x2264;" 
d="M981 0h-836v219h836v-219zM958 479l-163 -182l-682 526l680 527l165 -179l-495 -346z" />
    <glyph glyph-name="greaterequal" unicode="&#x2265;" 
d="M981 0h-836v219h836v-219zM1014 823l-680 -526l-166 178l496 346l-496 346l164 183z" />
    <glyph glyph-name="lozenge" unicode="&#x25ca;" horiz-adv-x="1282" 
d="M950 678l-319 438l-297 -416l315 -436zM1237 688l-510 -706h-164l-518 712l514 707h160z" />
    <glyph glyph-name="fi" unicode="&#xfb01;" horiz-adv-x="1218" 
d="M1077 0h-260v815h-362v-815h-260v815h-179v203h179v37q0 457 501 456q154 0 316 -38l-45 -218q-127 41 -257 41q-255 0 -255 -225v-53h622v-1018z" />
    <glyph glyph-name="fl" unicode="&#xfb02;" horiz-adv-x="1218" 
d="M1077 0h-260v1286q-74 12 -143 12q-219 0 -219 -194v-86h223v-203h-223v-815h-260v815h-179v203h179v98q0 186 121 291q122 104 380 104q147 0 381 -34v-1477z" />
    <glyph glyph-name="HT" horiz-adv-x="1439" 
 />
    <glyph glyph-name="Euro" 
d="M23 743v162h178q47 207 187 328t382 121q152 0 285 -51l-62 -207q-109 51 -243 51q-215 0 -279 -242h338v-162h-369v-151h369v-162h-344q27 -125 99 -183q72 -59 195 -59q122 0 249 54l59 -199q-155 -66 -363 -66q-441 0 -516 453h-165v162h151q-2 18 -2 55l2 96h-151z
" />
    <glyph glyph-name="apple" horiz-adv-x="2138" 
d="M33 778l307 -28q-6 -63 0 -123l-307 -31q-12 92 0 182zM1087 727q4 0 5 10q0 10 -5 11q6 -11 0 -21zM1085 741q-6 0 -3 -4t-1 -4v-2q6 2 4 8v2zM1075 733v-2h2v6q0 10 -8 2q4 0 6 -2q-4 0 -6 -4h6zM1065 738q0 -10 4 -11q-6 10 0 21q-4 0 -4 -10zM1061 733q-2 0 -2 2t2 4
v2q-4 2 -4 -3t4 -7v2zM1053 741h-2v-6h-2v6h-2v-6q2 -4 6 0v6zM1044 731v2h-4v12h-2v-14h6zM1321 -104l-27 63l-479 -125l47 -113h414l22 56l-8 20l-143 -37l-31 84zM1321 66l-27 65l-479 -123l27 -63zM1319 283h-500v-97l29 -69l471 121v45zM1069 680q-49 0 -82 -6l31 -281
h104l27 281q-31 6 -80 6zM1070 801q126 0 280 -41q12 -4 16 -39t-6 -65t-35 -20t-78 21l-26 -264h100q135 117 135 286t-114 283t-274 114t-272 -114q-114 -114 -114 -284t135 -285h103l-33 264q-12 -2 -78 -24q-20 -6 -30 23q-9 30 -5 65t19 39q151 41 277 41zM1595 691
q0 -214 -135 -355v-164l-33 -10l66 -156l-66 -16l66 -150l-68 -18l21 -49l-64 -146h-116q-6 -41 -62 -69t-136 -29q-79 0 -134 29t-62 69h-116l-111 267l64 18l-66 154l72 20l-39 90v162q-133 150 -133 358t153 363q154 153 372 153t373 -153q154 -154 154 -368zM2105 776
q8 -84 2 -178l-303 29q6 59 0 123zM1540 1245l191 232q78 -63 127 -127l-232 -191q-39 49 -86 86zM1130 1403q-49 8 -120 0l-31 297q74 8 180 0zM279 1352q70 80 127 127l196 -236q-49 -37 -86 -86z" />
    <glyph glyph-name="Grave" horiz-adv-x="765" 
d="M625 1610l-43 -144l-443 109l62 188z" />
    <glyph glyph-name="Acute" horiz-adv-x="804" 
d="M639 1575l-440 -109l-43 144l424 153z" />
    <glyph glyph-name="Dieresis" horiz-adv-x="1118" 
d="M440 1610q0 -53 -36 -89t-89 -36t-90 37t-37 89t37 89t89 37t89 -37t37 -90zM883 1611q0 -52 -37 -89t-89 -37t-89 36t-37 89t37 90t88 37t89 -37t38 -89z" />
    <glyph glyph-name="Circumflex" horiz-adv-x="872" 
d="M770 1595l-61 -131l-281 123l-276 -123l-60 127l338 178z" />
    <glyph glyph-name="Tilde" horiz-adv-x="956" 
d="M621 1491q-78 0 -154 48t-109 48q-70 0 -118 -88l-129 90q94 168 256 168q77 0 153 -48t109 -48q68 0 119 86l129 -88q-94 -168 -256 -168z" />
    <glyph glyph-name="Caron" horiz-adv-x="872" 
d="M768 1642l-338 -178l-340 176l62 129l280 -120l277 120z" />
  </font>
</defs>
</svg>
